<svg xmlns="http://www.w3.org/2000/svg" width="617.155" height="773.019" viewBox="0 0 617.155 773.019"><defs><style>.a,.b,.c,.d,.e{fill:none;stroke:#dd712b;}.a{stroke-width:30px;}.b{stroke-width:25px;}.c{stroke-width:16px;}.d{stroke-width:12px;}.e{stroke-width:10px;}</style></defs><g transform="translate(4941.22 -839.579)"><path class="a" d="M411.54,821.382l403.2-57.677V569.815s4.671-32.8-16.294-67.67-237.88-358.668-237.88-358.668S417.734-7.506,417.407,159.117,411.54,821.382,411.54,821.382Z" transform="translate(-5154.327 773.891)"/><path class="a" d="M411.54,815.52,228.3,800.964l7.063-520.083s1.415-7.278,20.2-21.834,163.8-128.281,163.8-128.281Z" transform="translate(-5154.327 773.891)"/><path class="a" d="M.5,0,.4,86.332,0,417" transform="translate(-4635.327 1166.391)"/><line class="b" y2="227" transform="translate(-4540.827 998.391)"/><line class="b" y2="202" transform="translate(-4540.827 1353.391)"/><line class="c" y2="281" transform="translate(-4439.827 1274.391)"/><path class="d" d="M403.4,1749.128l-187.542-19.661" transform="translate(-5154.327 -143.109)"/><path class="e" d="M0,20.529,381.441,0" transform="translate(-4734.962 1409.391)"/><path class="e" d="M0,25.529,381.441,0" transform="translate(-4734.962 1412.391)"/><path class="e" d="M0,32.529,381.441,0" transform="translate(-4734.962 1412.391)"/><path class="e" d="M0,20.529,381.441,0" transform="translate(-4730.356 1252.434) rotate(3)"/><path class="e" d="M0,25.529,381.441,0" transform="translate(-4730.513 1255.43) rotate(3)"/><path class="e" d="M0,32.529,381.441,0" transform="translate(-4730.513 1255.43) rotate(3)"/><path class="e" d="M0,20.529,268.83,0" transform="matrix(0.995, 0.105, -0.105, 0.995, -4728.954, 1084.439)"/><path class="e" d="M0,25.529,268.83,0" transform="matrix(0.995, 0.105, -0.105, 0.995, -4729.268, 1087.422)"/><path class="e" d="M0,32.529,268.83,0" transform="matrix(0.995, 0.105, -0.105, 0.995, -4729.268, 1087.422)"/><path class="e" d="M.491,20.477,207.625,6.433" transform="matrix(0.995, 0.105, -0.105, 0.995, -4746.643, 963.674)"/><path class="e" d="M.61,25.465,207.744,6.42" transform="matrix(0.995, 0.105, -0.105, 0.995, -4747.075, 966.658)"/><path class="e" d="M.775,32.447,207.909,6.4" transform="matrix(0.995, 0.105, -0.105, 0.995, -4747.241, 966.658)"/></g></svg>